<svg xmlns="http://www.w3.org/2000/svg" viewBox="0 0 1178.68 143.7">
  <defs>
    <style>
      .cls-1 {
        fill: #00a868;
      }
    </style>
  </defs>
  <g id="Camada_2" data-name="Camada 2">
    <g id="Layer_1" data-name="Layer 1">
      <g>
        <g>
          <path class="cls-1" d="M0,141c.22-11.11.22-22.43.22-33.54V57.08C.22,48,0,38.87,0,30H13.77V52.42h.44c4.67-16.88,16.44-24.88,32-24.88a58.93,58.93,0,0,1,14.43,1.78l.45,13.55a80.59,80.59,0,0,0-14.22-1.34C16.44,41.53,14,66.85,14,96.62c0,17.77,0,31.31.45,44.42Z"/>
          <path class="cls-1" d="M78.4,82a30,30,0,0,0-.22,4.44c0,31.76,20,44.64,41.54,44.64a56.78,56.78,0,0,0,36.42-13.54l-.89,14.21c-7.1,6.44-21.1,12-37.31,12-29.32,0-54-17.77-54-56.63,0-36.43,20.21-59.53,51.75-59.53,24.87,0,43.31,14.88,43.31,42.65A88.71,88.71,0,0,1,158.14,82ZM79.74,71.3H145a7.65,7.65,0,0,0,.22-2.22c0-19.33-14.88-29.1-30-29.1C97.73,40,84,50.64,79.74,71.3Z"/>
          <path class="cls-1" d="M172.35,85.73c0-34.2,22-58.19,56.64-58.19,13.33,0,25.32,3.55,29.76,6.67l-.22,15.54C251,42.42,239.43,40,229.66,40c-26,0-43.09,18.21-43.09,44.86,0,30,19.55,46.2,41.31,46.2,11.11,0,24-4.22,35.32-13.54l-1.11,14.21c-7.11,6.44-20.88,12-35.54,12C196.56,143.7,172.35,123.49,172.35,85.73Z"/>
          <path class="cls-1" d="M286.07,141c.22-11.11.22-22.43.22-33.54V57.08c0-9.1-.22-18.21-.22-27.1h13.77V52.42h.45c4.66-16.88,16.43-24.88,32-24.88a59.08,59.08,0,0,1,14.44,1.78l.44,13.55a80.59,80.59,0,0,0-14.22-1.34c-30.42,0-32.87,25.32-32.87,55.09,0,17.77,0,31.31.45,44.42Z"/>
          <path class="cls-1" d="M436.43,141c-.44-4-.66-8.44-.88-12a49.31,49.31,0,0,1-35.1,14.44c-21.32,0-37.76-11.55-37.76-39.09V67.74c0-12,0-27.32-.22-37.76h14.44c-.44,12.44-.22,24.66-.22,37.32v35.54c0,19.32,11.77,28.2,28.43,28.2,13.32,0,22.65-4.66,30-11.32.22-19.77.22-55.53-.22-89.74h14.44c0,14.44-.23,29.1-.23,44.2v41.09c0,8.44.23,17.77.67,25.77Z"/>
          <path class="cls-1" d="M489.29,120.38c0-10.44.67-28,.67-41.09,0-11.77-.22-25.54-.44-37.31H465.31V34l24.43-4,5.33-30h8.66V30h31.76l-.22,12H503.73v74.18c0,9.11,2.22,14.22,12.88,14.22,6.22,0,13.55-2.45,17.77-5.56l2.67,10.89c-3.56,2.66-12.44,6.44-23.1,6.44C497.73,142.15,489.29,134.82,489.29,120.38Z"/>
          <path class="cls-1" d="M621.44,141c-1.33-2.89-1.77-8.66-2-14.22C605.23,138.15,595,143,581.24,143c-17.32,0-30.65-9.55-30.65-28.88,0-19.1,12.22-28.87,36.65-32.87l32-5.11V63.75c0-15.77-8.44-23.55-26.43-23.55a75.44,75.44,0,0,0-34.87,8.22L555.7,35.54c7.33-3.78,21.77-8,38.42-8,26.66,0,39.1,10.44,39.1,33.54L633,114.83c0,8.66,0,19.32,1.56,26.21ZM584.8,130.82c10.66,0,22.65-4.66,34.42-13.32v-30L588.79,92.4c-17.54,2.88-24,9.1-24,20.43C564.81,124.82,572.58,130.82,584.8,130.82Z"/>
        </g>
        <path class="cls-1" d="M956.65,139.75h22.74a1.64,1.64,0,0,0,1.75-1.59V75.36c0-17.81,8.74-27.19,23.85-27.19s23.68,9.38,23.68,27.19v62.8a1.64,1.64,0,0,0,1.75,1.59h22.74a1.64,1.64,0,0,0,1.75-1.59V75.52c0-26.87-15-50.4-49.92-50.4S954.9,48.65,954.9,75.52v62.64A1.64,1.64,0,0,0,956.65,139.75Z"/>
        <path class="cls-1" d="M800.21,141.18c8.27,0,13.67-1,16.06-1.91a2,2,0,0,0,1.27-1.75V118.76c0-1.11-.48-1.75-1.91-1.75-1.11,0-4.29.64-6.83.64-9.86,0-14.15-3.66-14.15-12.24V52.46h21a1.76,1.76,0,0,0,1.75-1.75V30.21a1.76,1.76,0,0,0-1.75-1.75H793.85V10.65c0-1.91-.79-2.7-2.22-2.7H770.16c-1.75,0-2.54.79-2.54,2.7v97.46C767.62,131.8,780.81,141.18,800.21,141.18Z"/>
        <path class="cls-1" d="M709,142.45c25.6,0,43.88-15.74,43.88-36.25,0-23-15.26-29.73-36.09-34.18l-10.33-2.23c-7.79-1.75-12.08-5.4-12.08-11.6,0-7.95,7.94-12.25,18.92-12.25,15.42,0,25.91,7,27.5,7a2.46,2.46,0,0,0,2.07-1.43L747,36.09c.79-2.07.64-2.55-.79-3.34-9.23-4.77-19.08-7.47-33.07-7.47-25.92,0-43.88,14.94-43.88,34.81,0,18.77,14.46,29.1,35.13,33.55l10.49,2.23c8.43,1.75,13.2,5.08,13.2,12.24,0,7.31-5.72,13.67-19.24,13.67-19.07,0-32.11-7.63-34.18-7.63-1.27,0-1.75.64-2.22,2.7l-2.71,12.88c-.79,2.7,0,4.45,1.75,5.25C678,138.63,695.76,142.45,709,142.45Z"/>
        <path class="cls-1" d="M882.41,120.35c-16.7,0-32-12.56-32-36.25s15.26-35.93,32-35.93c16.85,0,31.79,12.24,31.79,35.93C914.2,108,899.26,120.35,882.41,120.35Zm0,22.89c33.38,0,57.71-25,57.71-59.14s-24.33-59-57.71-59-57.72,24.8-57.72,59S849.18,143.24,882.41,143.24Z"/>
        <path class="cls-1" d="M1178.68,82.83c0-35.14-20.19-57.71-52.31-57.71-30.21,0-56.28,23.21-56.28,58.51,0,37.67,26.71,59.61,55.33,59.61,24,0,37.86-9.46,46.42-21,1.66-2.23,2-3.18,2-3.82s-.41-1.11-1.84-2.38l-10-8.75c-2.39-2.06-3.19-2.7-4-2.7s-1.27.48-1.91,1.27c-6.84,9.22-16.37,14.47-29.25,14.47-16.24,0-27.07-11-29.82-28.93h73.37C1175.48,91.42,1178.68,89.81,1178.68,82.83Zm-53.26-35.61c17.35,0,26.53,11.7,27,24.64h-55.06C1100.4,58,1109.83,47.22,1125.42,47.22Z"/>
      </g>
    </g>
  </g>
</svg>
