<svg xmlns="http://www.w3.org/2000/svg" viewBox="0 0 512 508.05"><defs><style>.cls-1{fill:#07431e;}</style></defs><title>energy</title><g id="Camada_2" data-name="Camada 2"><g id="Capa_1" data-name="Capa 1"><path class="cls-1" d="M82.05,387a42.12,42.12,0,0,0-18.93,4.46C6,310.59,5.83,199.77,63.6,118.7a10,10,0,1,0-16.29-11.61,256.2,256.2,0,0,0,.49,297.35A42.37,42.37,0,0,0,112,459.34h0a42.37,42.37,0,0,0-30-72.33Zm15.82,58.18a22.37,22.37,0,1,1,0-31.63A22.39,22.39,0,0,1,97.87,445.19Z"/><path class="cls-1" d="M394,446.92a233.12,233.12,0,0,1-95.52,40.68,27.37,27.37,0,0,1-32.35-26.87v-73.3H267a21,21,0,0,0,21-21V349.54a90.14,90.14,0,0,0,58-84.11V218.08a38,38,0,0,0-5-74.31V81.43a30,30,0,0,0-60,0v62H231v-62a30,30,0,1,0-60,0v62.34a38,38,0,0,0-5,74.31v47.35a90.14,90.14,0,0,0,58,84.11v16.89a21,21,0,0,0,21,21h1.13v73.3a47.35,47.35,0,0,0,47.36,47.32,47.76,47.76,0,0,0,8.57-.78,252.8,252.8,0,0,0,103.65-44.14A10,10,0,0,0,394,446.92ZM301,81.43a10,10,0,0,1,20,0v62H301Zm-110,0a10,10,0,0,1,20,0v62H191Zm-33,100a18,18,0,0,1,18-18H336a18,18,0,0,1,0,36H176A18,18,0,0,1,158,181.43Zm28,84v-46H326v46a70,70,0,1,1-140,0Zm58,101v-11.8a90.4,90.4,0,0,0,24,0v11.8a1,1,0,0,1-1,1H245A1,1,0,0,1,244,366.43Z"/><path class="cls-1" d="M422.84,422.34l-.22.23A10,10,0,0,0,437,436.43a2.5,2.5,0,0,0,.23-.23,10,10,0,0,0-14.42-13.86Z"/><path class="cls-1" d="M511.32,236.74A254.87,254.87,0,0,0,276.37.79c-60.15-4.7-120,11.62-168.58,46a10,10,0,0,0,11.55,16.33C212.21-2.58,342.71,8.37,422.88,88.56c82.86,82.86,92.88,211.53,23.82,306a10,10,0,0,0,16.15,11.8A256,256,0,0,0,511.32,236.74Z"/><path class="cls-1" d="M257.91,308.24l20.7-36.55a10,10,0,0,0-8.7-14.93h-7.15l13.16-16.62a10,10,0,0,0-15.68-12.42l-26,32.83a10,10,0,0,0,7.84,16.21h10.66l-12.24,21.62a10,10,0,1,0,17.4,9.86Z"/></g></g></svg>