<svg xmlns="http://www.w3.org/2000/svg" viewBox="0 0 485.61 511"><defs><style>.cls-1{fill:#1b4125;}</style></defs><title>integrity</title><g id="Camada_2" data-name="Camada 2"><g id="Layer_1" data-name="Layer 1"><path class="cls-1" d="M360.28,308.64l-17.62,9.76a7.49,7.49,0,0,0,7.25,13.1l17.62-9.77a7.48,7.48,0,0,0-7.25-13.09Z"/><path class="cls-1" d="M360.28,287.4l-17.62,9.76a7.49,7.49,0,0,0,7.25,13.1l17.62-9.77a7.48,7.48,0,0,0-7.25-13.09Z"/><path class="cls-1" d="M484.49,377.08a7.55,7.55,0,0,0,1.12-3.92V307.31a7.49,7.49,0,1,0-15,0v54.31l-72-32.1V190.42l72-39.88V274.71a7.49,7.49,0,0,0,15,0V137.84a7.61,7.61,0,0,0-3.86-6.55L246.43.92a7.58,7.58,0,0,0-7.25,0L3.86,131.29A7.59,7.59,0,0,0,0,137.93V373.16a7.59,7.59,0,0,0,3.86,6.54l103.68,57.45a7.49,7.49,0,0,0,7.26-13.1L24.24,373.88l69.83-31.14L235.32,421v69.83L144.48,440.5a7.49,7.49,0,0,0-7.25,13.1l102,56.48a7.58,7.58,0,0,0,7.25,0l106.93-59.24a7.49,7.49,0,0,0-7.26-13.1l-95.81,53.08V421l141.24-78.25,69.84,31.14-85.6,47.43A7.48,7.48,0,1,0,383,434.4l98.73-54.7a7.48,7.48,0,0,0,2.74-2.62ZM242.8,112.37,375.72,186,242.8,259.65,109.89,186Zm148.37,65.09L250.29,99.41V20.17L462.68,137.84ZM235.32,99.41,94.44,177.46,22.93,137.84,235.32,20.17ZM15,150.54l72,39.88v139.1l-72,32.1Zm87,48.18,54.33,30.1,79.06,43.8V403.87L101.93,330Zm148.36,73.9,133.39-73.9V330l-133.39,73.9Z"/></g></g></svg>