<svg xmlns="http://www.w3.org/2000/svg" viewBox="0 0 480.16 480"><defs><style>.cls-1{fill:#07431e;}</style></defs><title>smart</title><g id="Camada_2" data-name="Camada 2"><g id="Capa_1" data-name="Capa 1"><path class="cls-1" d="M464.16,232a8.47,8.47,0,0,0-7.59,5l-7.13,17.84-17.72-65a8,8,0,0,0-6.93-5.85,7.92,7.92,0,0,0-8,4.38L395.05,232H382.81A159.21,159.21,0,0,0,400,160C400,71.78,328.23,0,240,0S80,71.78,80,160a159,159,0,0,0,17.21,72l-1,0a8.39,8.39,0,0,0-7.59,5l-7.13,17.84-17.72-65A8,8,0,0,0,56.79,184a7.9,7.9,0,0,0-7.95,4.38L27.05,232H0v16H32a8,8,0,0,0,7.16-4.42L53.79,214.3l18.49,67.81A8,8,0,0,0,79.55,288H80a8,8,0,0,0,7.43-5l13.95-34.86,5.36.11A159,159,0,0,0,120.25,266a8.19,8.19,0,0,0,1.09,2.46c26.26,39.38,27.79,47.54,32.35,71.77.84,4.45,1.77,9.39,2.95,15.08a35.84,35.84,0,0,0,15.67,23,23.84,23.84,0,0,0,6.9,33.89,23.64,23.64,0,0,0,8,32A23.79,23.79,0,0,0,184,456a24,24,0,0,0,24,24h64a24,24,0,0,0,24-24,23.79,23.79,0,0,0-3.21-11.77,23.64,23.64,0,0,0,8-32,23.84,23.84,0,0,0,6.9-33.89,35.78,35.78,0,0,0,15.67-23c1.18-5.7,2.11-10.64,2.95-15.09,4.56-24.23,6.09-32.39,32.35-71.77a8.19,8.19,0,0,0,1.09-2.46,158.14,158.14,0,0,0,13.65-18H400a8,8,0,0,0,7.16-4.42l14.63-29.28,18.49,67.81a8,8,0,0,0,7.27,5.88H448a8,8,0,0,0,7.43-5l13.95-34.86,10.46.21.32-16ZM288,384a8,8,0,0,1,0,16H192a8,8,0,0,1,0-16Zm0,40a8,8,0,0,1-8,8H200a8,8,0,0,1,0-16h80A8,8,0,0,1,288,424Zm-16,40H208a8,8,0,0,1,0-16h64a8,8,0,0,1,0,16Zm72.9-205.49a8,8,0,0,0-2.17,5c-25.58,38.84-27.56,49.38-32.14,73.75-.82,4.36-1.74,9.21-2.9,14.82a19.43,19.43,0,0,1-19,15.93H273.53l21.18-120H304a24,24,0,0,0,24-24V192h24a8,8,0,0,0,8-8V144a24,24,0,0,0-24-24V96a24,24,0,0,0-24-24h-8a24,24,0,0,0-24-24H256a8,8,0,0,0-8,8V240a8,8,0,0,0,8,8h22.47L257.29,368H222.71L201.53,248H224a8,8,0,0,0,8-8V56a8,8,0,0,0-8-8H200a24,24,0,0,0-24,24h-8a24,24,0,0,0-24,24v24a24,24,0,0,0-24,24v56a8,8,0,0,0,8,8h24v16a24,24,0,0,0,24,24h9.29l21.18,120H191.28c-9.24,0-17.05-6.55-19-15.95-1.16-5.59-2.08-10.44-2.9-14.8-4.58-24.37-6.56-34.91-32.14-73.75a8,8,0,0,0-2.17-5A142.9,142.9,0,0,1,96,160C96,80.6,160.6,16,240,16S384,80.6,384,160A142.9,142.9,0,0,1,344.9,258.51ZM264,120h16v16h16V112a8,8,0,0,0-8-8H264V64h16a8,8,0,0,1,8,8v8a8,8,0,0,0,8,8h16a8,8,0,0,1,8,8v32a8,8,0,0,0,8,8h8a8,8,0,0,1,8,8v32H288a8,8,0,0,0-8,8v16h16v-8h16v32a8,8,0,0,1-8,8H264Zm-96,80V176h16V160H160a8,8,0,0,0-8,8v24H136V144a8,8,0,0,1,8-8h8a8,8,0,0,0,8-8V96a8,8,0,0,1,8-8h8v16h16V72a8,8,0,0,1,8-8h16V232H176a8,8,0,0,1-8-8Z"/></g></g></svg>